<?xml version="1.0" encoding="UTF-8" standalone="no"?>
<svg
   xmlns:svg="http://www.w3.org/2000/svg"
   xmlns="http://www.w3.org/2000/svg"
   version="1.1"
   width="626.42859"
   height="142.93057"
   id="svg3949">
  <defs
     id="defs3951" />
  <g
     transform="translate(-36.785705,-460.8969)"
     id="layer1">
    <path
       d="m 610.46795,538.34015 c 0,10.953 -0.93281,11.26895 -5.79245,11.78048 l -3.81398,0.41375 c -0.73723,0.7297 -0.63192,2.58028 0.20311,2.99402 4.64147,-0.21063 10.95299,-0.30843 15.5042,-0.30843 l 11.7805,0 c 12.09644,0 20.9807,0.0978 25.51686,0.30843 1.45188,-2.7909 3.72373,-10.63704 4.3481,-14.98514 -0.62437,-1.03812 -2.37716,-1.33904 -3.30996,-0.62439 -3.61841,8.38025 -5.88273,11.37428 -19.0173,11.16364 -8.68115,0 -10.43393,-0.82749 -11.68269,-2.26433 -1.53462,-1.76029 -1.74526,-5.48401 -1.74526,-10.7574 l 0,-13.11952 c 0,-2.58028 0.0978,-2.79091 2.47495,-2.79091 l 4.96496,0 c 8.98959,0 10.74989,0.21063 11.47959,4.54368 l 0.71465,4.13747 c 0.83501,0.61686 2.77586,0.61686 3.30245,-0.0978 -0.10538,-3.30998 -0.30843,-6.9359 -0.30843,-10.84769 0,-3.83655 0.2031,-7.56027 0.30843,-10.35117 -0.52659,-0.81998 -2.46744,-0.81998 -3.30245,-0.0903 l -0.71465,3.50556 c -0.7297,4.45341 -2.49,4.55121 -11.47959,4.55121 l -4.96496,0 c -2.37715,0 -2.47495,-0.0978 -2.47495,-2.79091 l 0,-17.47515 c 0,-5.88271 0,-6.09335 4.43837,-6.09335 l 6.92837,0 c 2.79091,0 5.88272,0.21064 8.26741,0.93281 3.30245,0.82749 4.85211,3.40776 6.5071,9.40333 0.8275,0.62437 2.88119,0.42126 3.30245,-0.41375 -0.61686,-4.43837 -1.23371,-12.60047 -1.64746,-14.36077 -1.33904,0.20312 -7.32708,0.30844 -13.95454,0.30844 l -19.73195,0 c -4.55121,0 -9.40333,-0.10537 -13.33768,-0.30844 -0.8275,0.40623 -0.93281,2.27185 -0.21063,2.99403 l 1.65498,0.20311 c 4.85964,0.72218 5.79245,1.03813 5.79245,11.99864 l 0,38.44081 z M 587.5479,510.95163 c 0,-8.16208 0,-17.15167 1.45188,-20.35632 0.72217,-1.65499 2.47495,-2.07625 4.42332,-2.37716 l 2.39973,-0.51907 c 0.81997,-0.7297 0.60934,-2.47496 -0.21063,-2.99402 -3.7162,0.1956 -6.40931,0.30091 -10.85521,0.30091 -4.03214,0 -7.86117,-0.10525 -11.87827,-0.30091 -1.03814,0.30091 -1.14345,2.26432 -0.21064,2.99402 l 2.37716,0.30843 c 2.58779,0.40622 4.23525,1.03061 5.16054,2.5878 1.86562,3.09934 1.97095,12.60046 1.97095,20.35632 l 0,20.15322 c 0,1.64746 0,2.17405 -0.30844,2.48247 -1.03812,-0.62437 -10.65209,-11.5849 -14.98514,-16.3317 l -10.34366,-11.1561 c -3.6184,-3.92684 -14.87982,-16.95609 -16.63261,-21.39446 -2.49,0.1956 -4.95744,0.30091 -7.13149,0.30091 -2.58779,0 -8.2674,0.10525 -12.19424,-0.30091 -1.0306,0.30091 -1.13591,2.37716 -0.42126,2.99402 l 1.54966,0.30843 c 1.4594,0.31595 4.3481,1.13592 5.49155,2.06121 3.50557,3.00154 3.40024,4.65653 3.40024,12.72083 l 0,24.49378 c 0,8.16209 0,17.1592 -1.33902,20.35633 -0.72218,1.65499 -2.58028,2.06874 -4.55122,2.36964 l -2.27185,0.52658 c -0.82748,0.72218 -0.62437,2.47497 0.20312,2.99403 3.61088,-0.21064 6.41683,-0.31595 10.75741,-0.31595 3.92682,0 7.9665,0.10525 11.78049,0.31595 1.0306,-0.31595 1.13592,-2.27185 0.20311,-2.99403 l -2.27936,-0.30842 c -2.57275,-0.41375 -4.33307,-1.03813 -5.26587,-2.5878 -1.75278,-3.09934 -1.8581,-12.60799 -1.8581,-20.35633 l 0,-20.15321 c 0,-5.48402 0,-6.61242 0.30843,-6.61242 1.75279,1.54967 5.0778,5.4765 11.78049,13.02173 l 24.18536,27.59313 c 7.43991,8.47804 10.44146,11.9836 12.08892,14.15765 1.24877,0.10525 2.69312,-0.30843 3.51308,-1.44435 -0.30843,-2.38469 -0.30843,-15.09046 -0.30843,-18.19733 l 0,-24.6969 z m -99.50677,16.95082 c 2.8887,0 3.20465,0 4.23526,2.78339 l 4.85964,14.05985 c 1.34655,4.4459 1.03812,5.07027 -2.69311,5.4765 l -2.26433,0.30843 c -0.62437,0.62438 -0.51906,2.48248 0.30843,3.00154 3.61841,-0.0978 8.1621,-0.31595 12.60798,-0.31595 5.36367,0 9.1927,0.10525 13.43548,0.31595 0.71465,-0.51906 0.71465,-2.27185 -0.10525,-3.00154 l -1.54968,-0.30843 c -5.26586,-0.92529 -5.79245,-1.65499 -8.16961,-8.57584 l -14.87982,-43.29293 c -1.64747,-4.65652 -2.99402,-9.51616 -4.64148,-14.16516 -0.4288,-0.51908 -0.94034,-0.8275 -1.76782,-0.8275 -0.20312,0 -3.61089,4.23526 -7.22929,4.95744 0.30844,1.75277 -0.62438,4.22773 -1.97094,7.54522 l -14.15765,36.79335 c -2.159,5.57429 -3.82151,9.92239 -5.06275,12.60046 -1.54215,3.40777 -2.67807,4.3481 -5.67961,4.75432 l -3.09934,0.51907 c -0.72217,0.9328 -0.62437,2.48248 0.10538,3.00154 3.61087,-0.21064 6.82305,-0.31595 10.22328,-0.31595 4.24279,0.10525 7.65808,0.10525 10.953,0.31595 0.83502,-0.41375 0.94787,-2.27185 0.21064,-3.00154 l -2.99402,-0.51907 c -3.82903,-0.51154 -4.24278,-0.81997 -2.16653,-6.92085 l 4.22774,-12.40487 c 0.93281,-2.78338 0.8275,-2.78338 3.52061,-2.78338 l 13.7439,0 z m -12.08893,-4.65653 c -2.48247,0 -2.7909,0 -1.65497,-2.9865 l 4.3481,-12.10396 c 1.85057,-4.85213 2.67806,-7.43239 3.08429,-8.16209 l 0.21815,0 c 0.50402,0.7297 1.14345,2.68559 2.88871,8.16209 l 4.3481,12.41239 c 0.82749,2.47496 0.3987,2.67807 -2.49001,2.67807 l -10.74237,0 z m -54.43548,15.09423 c 0,10.953 -0.92529,11.26895 -5.79245,11.67517 l -4.32554,0.51906 c -0.74474,0.51907 -0.6319,2.58028 0.20311,2.99402 6.59738,-0.21063 11.45703,-0.30843 16.01575,-0.30843 4.54369,0 9.1927,0.0978 15.18826,0.30843 0.82749,-0.41374 0.93282,-2.26431 0.20312,-2.99402 l -3.7162,-0.41375 c -4.85212,-0.51153 -5.78493,-0.82748 -5.78493,-11.78048 l 0,-44.647 c 0,-4.34058 0.10525,-4.55122 2.78339,-4.55122 l 5.89024,0 c 11.06583,0 13.02926,1.97094 14.36828,10.02772 0.93282,0.72968 2.69312,0.51906 3.21218,-0.30844 -0.31595,-3.30996 0.51155,-12.19424 1.54967,-16.43701 -0.21816,-0.30844 -0.7297,-0.51154 -1.34656,-0.51154 -0.40622,0 -0.84254,0.2031 -1.24876,0.40621 -1.23371,2.38469 -2.78338,2.69313 -7.84614,2.69313 l -42.17204,0 c -7.01865,0 -8.47805,-0.10538 -8.98206,-2.69313 -0.21064,-0.3009 -0.61686,-0.40621 -1.04565,-0.40621 -0.51154,0 -0.92529,0.10525 -1.13592,0.40621 -0.72218,3.61841 -2.27184,10.02771 -4.03215,15.60953 0.41375,1.03061 2.58027,1.34656 3.30997,0.72218 3.83656,-8.36521 6.61994,-9.50865 16.12859,-9.50865 l 5.77741,0 c 2.69311,0 2.79843,0.21064 2.79843,4.55122 l 0,44.647 z m -42.21644,-38.44157 c 0,-10.96052 0.93281,-11.27647 5.78492,-11.89332 l 2.27938,-0.30844 c 0.72969,-0.72217 0.61685,-2.58027 -0.21064,-2.99401 -4.54369,0.20311 -9.20022,0.30842 -13.75142,0.30842 -4.75433,0 -9.38829,-0.10525 -13.9395,-0.30842 -0.84254,0.41374 -0.93282,2.27184 -0.21817,2.99401 l 2.2869,0.30844 c 4.85212,0.61685 5.7774,0.9328 5.7774,11.89332 l 0,38.44082 c 0,10.95298 -0.92528,11.26894 -5.7774,11.8858 l -2.2869,0.30842 c -0.71465,0.7297 -0.62437,2.58028 0.21817,2.99403 4.55121,-0.20311 9.40332,-0.30843 13.9395,-0.30843 4.5512,0 9.20773,0.10525 13.75142,0.30843 0.82749,-0.41375 0.94033,-2.26433 0.21064,-2.99403 l -2.27938,-0.30842 c -4.85211,-0.61686 -5.78492,-0.93281 -5.78492,-11.8858 l 0,-38.44082 z m -29.31205,-13.65062 c -0.94034,-0.20311 -1.65499,-0.30843 -2.89623,-0.62437 -4.85211,-1.23373 -11.9836,-2.2568 -17.88137,-2.2568 -10.43393,0 -20.88291,2.98648 -28.52594,8.77142 -7.65054,5.89024 -13.02172,15.30109 -13.02172,27.39001 0,13.54079 6.29647,22.95164 14.67671,28.4131 7.43991,4.85964 16.22639,6.93589 26.44969,6.93589 6.72526,0 13.85673,-1.7603 16.12858,-2.49 1.13593,-0.30842 2.37717,-0.71465 3.6184,-0.92529 1.45188,-1.96341 4.23527,-8.78647 4.96497,-15.70732 -0.51907,-0.9328 -2.18158,-1.33903 -3.10687,-0.41374 -2.8887,6.72526 -8.58336,15.39889 -21.60508,15.39889 -13.32264,0 -27.06654,-10.75741 -27.06654,-32.7612 0,-21.19134 13.23236,-30.48935 26.34436,-30.48935 13.65363,0 18.29511,8.57584 20.06294,15.09046 0.71465,0.7297 2.57275,0.61686 3.2874,-0.20311 -1.02308,-7.65055 -1.22619,-13.75143 -1.4293,-16.12859 m -71.6985,0 c -0.92529,-0.20311 -1.65499,-0.30843 -2.89623,-0.62437 -4.85211,-1.23373 -11.9836,-2.2568 -17.87385,-2.2568 -10.43392,0 -20.87538,2.98648 -28.51841,8.77142 -7.65807,5.89024 -13.02925,15.30109 -13.02925,27.39001 0,13.54079 6.30399,22.95164 14.67671,28.4131 7.43992,4.85964 16.22639,6.93589 26.46473,6.93589 6.71022,0 13.8417,-1.7603 16.11355,-2.49 1.14344,-0.30842 2.37716,-0.71465 3.62592,-0.92529 1.43683,-1.96341 4.22022,-8.78647 4.94992,-15.70732 -0.51907,-0.9328 -2.16653,-1.33903 -3.10687,-0.41374 -2.88117,6.72526 -8.56831,15.39889 -21.58252,15.39889 -13.3452,0 -27.08159,-10.75741 -27.08159,-32.7612 0,-21.19134 13.22485,-30.48935 26.35189,-30.48935 13.63859,0 18.29512,8.57584 20.0479,15.09046 0.71465,0.7297 2.58027,0.61686 3.30997,-0.20311 -1.04565,-7.65055 -1.23371,-13.75143 -1.45187,-16.12859 M 162.49639,555.2887 c 24.93763,0 44.82755,-18.99473 44.82755,-45.08331 0,-22.73349 -14.97762,-44.30849 -44.82755,-44.30849 -26.60766,0 -45.98603,19.76204 -45.98603,45.59486 0,23.25255 17.31717,43.79694 45.98603,43.79694 m 1.67755,-4.00958 c -25.43412,0 -34.73965,-24.80222 -34.73965,-43.90978 0,-28.29274 17.44505,-37.46287 30.873,-37.46287 24.67434,0 34.10024,22.98174 34.10024,44.30097 0,25.44917 -14.72938,37.07168 -30.23359,37.07168 M 95.624433,480.87377 c -4.649,0 -5.89025,3.10687 -5.89025,4.85964 0,2.27185 1.647462,3.51309 3.204662,3.7162 2.47495,0.31595 5.581813,1.97094 5.581813,5.37118 0,4.55121 -3.93435,7.56027 -8.38025,9.41085 -0.308425,0.83502 -0.09775,2.06873 0.737225,2.69311 7.123962,-1.7603 14.150127,-7.55275 14.150127,-15.40641 0,-5.67209 -4.34058,-10.64457 -9.403327,-10.64457 m -32.391825,19.02482 c 0,-10.75742 0.932812,-11.06584 5.784925,-11.78802 l 2.279375,-0.41375 c 0.819962,-0.51906 0.722175,-2.58027 -0.203113,-2.99401 -4.543687,0.20311 -9.20775,0.30843 -13.743912,0.30843 -4.761838,0 -9.418375,-0.10525 -14.578913,-0.30843 -0.925287,0.41374 -0.925287,2.47495 -0.203112,2.99401 l 2.8887,0.41375 c 4.859637,0.72218 5.79245,1.0306 5.79245,11.78802 l 0,38.44081 c 0,10.74236 -0.932813,11.05079 -5.79245,11.67516 l -3.106863,0.51906 c -0.932812,0.51908 -0.601812,2.58028 0.218163,2.99403 4.340575,-0.20311 9.501112,-0.30843 14.782025,-0.30843 l 10.749887,0 c 11.562338,0 20.454125,0.10525 24.7947,0.30843 1.233713,-2.79091 3.5206,-10.63705 4.340575,-14.98515 -0.511537,-0.82749 -2.166525,-1.13591 -3.197137,-0.62438 -4.769363,10.65209 -6.416825,11.16364 -17.888888,11.16364 -8.259887,0 -9.922387,-0.81997 -11.156112,-2.26432 -1.542138,-1.7603 -1.7603,-5.48403 -1.7603,-10.64458 l 0,-36.27427 z m 463.492312,92.88908 c 0,3.90427 -0.33853,4.00958 -2.06874,4.19013 l -1.3616,0.14292 c -0.24825,0.2633 -0.22568,0.93282 0.0753,1.07575 1.64746,-0.0752 3.89675,-0.12037 5.51411,-0.12037 l 4.19765,0 c 4.30296,0 7.47,0.0451 9.08738,0.12037 0.51153,-0.993 1.32398,-3.79142 1.54215,-5.3411 -0.21817,-0.36108 -0.85007,-0.46639 -1.17354,-0.21814 -1.27885,2.97897 -2.10635,4.05471 -6.7704,3.97196 -3.08429,0 -3.71619,-0.29339 -4.15251,-0.80493 -0.55668,-0.6319 -0.63943,-1.95588 -0.63943,-3.82903 l 0,-4.67158 c 0,-0.91776 0.0451,-0.98546 0.8952,-0.98546 l 1.7603,0 c 3.19714,0 3.814,0.0678 4.08481,1.61737 l 0.26329,1.46692 c 0.28586,0.22568 0.98548,0.22568 1.16601,-0.0376 -0.0376,-1.18106 -0.11287,-2.46744 -0.11287,-3.86665 0,-1.3616 0.0752,-2.67806 0.11287,-3.67857 -0.18053,-0.29339 -0.88015,-0.29339 -1.16601,-0.0376 l -0.26329,1.25628 c -0.27081,1.57976 -0.88767,1.61737 -4.08481,1.61737 l -1.7603,0 c -0.85006,0 -0.8952,-0.0376 -0.8952,-0.99299 l 0,-6.22125 c 0,-2.09881 0,-2.16652 1.59481,-2.16652 l 2.45992,0 c 0.99298,0 2.09881,0.0678 2.94887,0.33852 1.16601,0.29339 1.72269,1.21115 2.30946,3.34759 0.29339,0.21063 1.03813,0.1354 1.17354,-0.15797 -0.20311,-1.57977 -0.43631,-4.48352 -0.57925,-5.10789 -0.47392,0.0752 -2.61789,0.11287 -4.97247,0.11287 l -7.02618,0 c -1.61736,0 -3.34006,-0.0376 -4.7468,-0.11287 -0.29337,0.14292 -0.33099,0.80492 -0.0753,1.06821 l 0.59429,0.0752 c 1.73021,0.25578 2.06874,0.36861 2.06874,4.25783 l 0,13.69125 z m -19.70788,-18.53508 c -0.33852,-0.0752 -0.60181,-0.11288 -1.03812,-0.22568 -1.71518,-0.44384 -4.27288,-0.81245 -6.36418,-0.81245 -3.70867,0 -7.42486,1.06069 -10.16311,3.12943 -2.70816,2.09882 -4.61893,5.43888 -4.61893,9.74185 0,4.82202 2.24177,8.16961 5.22074,10.11797 2.64798,1.73021 5.76988,2.46744 9.41085,2.46744 2.3922,0 4.92734,-0.62438 5.74731,-0.87263 0.40623,-0.12788 0.84254,-0.27082 1.27885,-0.34605 0.52659,-0.69207 1.51958,-3.1219 1.77535,-5.58181 -0.18806,-0.33851 -0.77483,-0.48145 -1.10583,-0.15045 -1.03813,2.3922 -3.0542,5.48403 -7.69568,5.48403 -4.7468,0 -9.62901,-3.82904 -9.62901,-11.66014 0,-7.54523 4.70919,-10.8552 9.37324,-10.8552 4.85963,0 6.5071,3.04667 7.14652,5.37119 0.24825,0.24823 0.91025,0.21815 1.16601,-0.0752 -0.36108,-2.71569 -0.43631,-4.88974 -0.50401,-5.73228 m -41.34606,8.78875 c 0,-2.91127 0,-6.11592 0.51906,-7.24432 0.2633,-0.58677 0.88015,-0.74474 1.5948,-0.85007 l 0.8275,-0.18053 c 0.3009,-0.27083 0.22568,-0.88768 -0.0677,-1.06823 -1.33151,0.0678 -2.2869,0.11288 -3.85161,0.11288 -1.44435,0 -2.79843,-0.0451 -4.24278,-0.11288 -0.37613,0.11288 -0.40622,0.7974 -0.0677,1.06823 l 0.85007,0.10525 c 0.91025,0.15045 1.50453,0.36861 1.82801,0.92528 0.66951,1.09832 0.6996,4.48352 0.6996,7.24433 l 0,7.1691 c 0,0.59429 0,0.76731 -0.11288,0.88767 -0.35356,-0.22568 -3.77637,-4.12242 -5.31852,-5.81502 l -3.6861,-3.97949 c -1.2939,-1.39169 -5.29595,-6.03317 -5.92786,-7.60541 -0.88767,0.0678 -1.7603,0.11287 -2.53514,0.11287 -0.92529,0 -2.94135,0.0226 -4.34058,-0.11287 -0.3686,0.11287 -0.39117,0.84254 -0.15045,1.06822 l 0.5642,0.10525 c 0.50403,0.11288 1.54215,0.3987 1.94085,0.73723 1.24877,1.06069 1.21115,1.65499 1.21115,4.52111 l 0,8.71878 c 0,2.91126 0,6.10087 -0.47392,7.25183 -0.25578,0.58678 -0.91778,0.73723 -1.61738,0.8275 l -0.80492,0.19559 c -0.30091,0.25578 -0.22569,0.88768 0.0678,1.07574 1.27885,-0.0752 2.28689,-0.12038 3.82904,-0.12038 1.39168,0 2.82852,0.0451 4.19765,0.12038 0.35356,-0.12038 0.3987,-0.81996 0.0677,-1.07574 l -0.80493,-0.11287 c -0.92529,-0.14294 -1.55719,-0.36862 -1.88066,-0.91025 -0.62439,-1.11335 -0.662,-4.49855 -0.662,-7.25184 l 0,-7.17663 c 0,-1.94085 0,-2.34707 0.0977,-2.34707 0.63942,0.55669 1.81296,1.94837 4.19764,4.63396 l 8.60592,9.81708 c 2.6555,3.01658 3.73125,4.27287 4.30296,5.04771 0.45137,0.0301 0.97043,-0.12038 1.26382,-0.52659 -0.12038,-0.84254 -0.12038,-5.36366 -0.12038,-6.46949 l 0,-8.78647 z m -55.09221,9.74636 c 0,3.90427 -0.32348,4.00958 -2.05369,4.19013 l -1.3616,0.14292 c -0.25578,0.2633 -0.22569,0.93282 0.0678,1.07575 1.66251,-0.0752 3.89674,-0.12037 5.52164,-0.12037 l 4.19765,0 c 4.30296,0 7.46247,0.0451 9.07985,0.12037 0.51906,-0.993 1.32398,-3.79142 1.54966,-5.3411 -0.22568,-0.36108 -0.85005,-0.4664 -1.18105,-0.21815 -1.2939,2.97898 -2.0913,4.05472 -6.7704,3.97197 -3.08429,0 -3.72371,-0.29339 -4.14499,-0.80493 -0.5642,-0.6319 -0.6319,-1.95589 -0.6319,-3.82904 l 0,-4.67157 c 0,-0.91776 0.0301,-0.98546 0.88768,-0.98546 l 1.7603,0 c 3.20465,0 3.82903,0.0678 4.07728,1.61737 l 0.26329,1.46692 c 0.30091,0.22568 0.99299,0.22568 1.17354,-0.0376 -0.0376,-1.18106 -0.11288,-2.46744 -0.11288,-3.86665 0,-1.3616 0.0752,-2.67806 0.11288,-3.67857 -0.18055,-0.29339 -0.87263,-0.29339 -1.17354,-0.0376 l -0.26329,1.25628 c -0.24825,1.57976 -0.87263,1.61737 -4.07728,1.61737 l -1.7603,0 c -0.85759,0 -0.88768,-0.0376 -0.88768,-0.99299 l 0,-6.22125 c 0,-2.09881 0,-2.16652 1.58728,-2.16652 l 2.45991,0 c 0.993,0 2.0913,0.0678 2.94136,0.33852 1.17354,0.29339 1.72269,1.21115 2.31699,3.34759 0.29337,0.21063 1.0306,0.1354 1.17352,-0.15797 -0.22567,-1.57977 -0.43631,-4.48352 -0.58676,-5.10789 -0.48145,0.0752 -2.60284,0.11287 -4.97247,0.11287 l -7.01865,0 c -1.6249,0 -3.34759,-0.0376 -4.7468,-0.11287 -0.30092,0.14292 -0.32348,0.80492 -0.0752,1.06821 l 0.59428,0.0752 c 1.73022,0.25578 2.05369,0.36861 2.05369,4.25783 l 0,13.69125 z m -23.22848,-8.38852 c 1.64746,-3.7162 2.70816,-6.18363 3.75381,-7.94394 0.61685,-1.06821 1.42178,-1.3315 2.27184,-1.50452 l 0.93281,-0.18807 c 0.17303,-0.29338 0.20312,-0.88767 -0.0903,-1.06822 -1.02307,0.0752 -2.23422,0.11287 -3.56573,0.11287 -1.17354,0 -2.4223,-0.0376 -3.93435,-0.11287 -0.29339,0.18055 -0.32348,0.77484 -0.0753,1.06822 l 1.07573,0.25577 c 1.09832,0.25577 1.20363,0.54916 0.62438,2.0236 -1.94836,5.00257 -4.16755,10.08036 -6.14601,14.71432 -0.36862,-0.85006 -1.3616,-3.01659 -2.03112,-4.67157 l -2.64798,-6.55224 c -1.51205,-3.75381 -1.79039,-4.55874 -1.79039,-4.89725 0,-0.29339 0.27834,-0.46641 1.09079,-0.64695 l 0.92528,-0.22568 c 0.33852,-0.2633 0.28587,-0.85006 -0.0376,-1.06822 -1.94838,0.0752 -3.19714,0.11287 -4.85965,0.11287 -1.43683,0 -3.00906,-0.0376 -4.45341,-0.11287 -0.36109,0.11287 -0.36109,0.77484 -0.0977,1.0306 l 0.88015,0.18055 c 1.47443,0.3009 1.79791,0.81245 2.82851,3.27236 l 6.4394,15.49668 c 0.662,1.53462 1.25629,3.34006 1.6926,4.80698 0.18055,0.11288 0.4288,0.18807 0.69961,0.18807 0.24825,0 0.54915,-0.0753 0.61686,-0.18807 0.6319,-1.87313 2.36212,-6.17611 3.83655,-9.51616 l 2.06122,-4.56626 z m -45.66482,-11.18244 c -7.71073,0 -13.17219,5.55173 -13.17219,13.05934 0,6.54472 4.7769,12.39735 13.10449,12.39735 7.42486,0 12.95402,-5.40879 12.95402,-12.65311 0,-6.69518 -4.37819,-12.80358 -12.88632,-12.80358 m -0.4664,1.47444 c 5.8451,0 8.35015,6.43187 8.35015,11.99112 0,7.39479 -3.40024,10.51669 -7.58284,10.51669 -6.28895,0 -8.463,-6.91332 -8.463,-11.99865 0,-7.83109 4.00957,-10.50916 7.69569,-10.50916 m -46.19067,18.09652 c 0,3.90427 -0.331,4.00958 -2.06121,4.22022 l -0.80492,0.11287 c -0.33852,0.2633 -0.22568,0.93281 0.0753,1.07575 1.6926,-0.0753 3.34006,-0.12037 4.96496,-0.12037 1.61737,0 3.27236,0.0451 4.88972,0.12037 0.29339,-0.14294 0.331,-0.81245 0.0752,-1.07575 l -0.81245,-0.11287 c -1.72268,-0.21064 -2.05368,-0.31595 -2.05368,-4.22022 l 0,-4.70918 c 0,-0.77484 0.0226,-0.81998 1.13592,-0.81998 1.21114,0 1.61736,0.1655 2.27936,1.26381 0.88768,1.43683 1.91828,3.4529 2.90375,4.99505 2.24928,3.41529 4.16003,4.85212 7.69568,4.85212 1.28637,0 1.97846,-0.10525 2.41477,-0.21815 0.12038,-0.18055 0.12038,-0.57925 -0.0601,-0.73723 -0.45136,-0.0301 -1.51958,-0.24825 -2.54266,-1.13592 -1.72269,-1.4293 -3.57327,-4.55873 -6.51463,-9.51617 -0.14292,-0.22568 -0.22567,-0.52658 0,-0.63191 1.80544,-0.73721 4.40828,-2.43734 4.40828,-5.82254 0,-2.64045 -1.34655,-4.37066 -3.23474,-5.35613 -1.60985,-0.88768 -4.1149,-1.25628 -6.98104,-1.25628 -3.03162,0 -6.15354,0.11288 -8.45546,0.33099 -0.30091,0.18055 -0.30091,0.76731 -0.0301,1.03061 l 0.94034,0.11288 c 1.73774,0.17302 1.76783,0.62437 1.76783,4.15251 l 0,13.46556 z m 4.27288,-15.82016 c 0,-1.6926 0.0226,-1.79791 1.94836,-1.79791 3.19714,0 5.07028,2.52761 5.07028,5.43889 0,3.49803 -1.64747,5.26586 -5.26587,5.26586 -1.75277,0 -1.75277,-0.0828 -1.75277,-1.25629 l 0,-7.65055 z m -39.43079,15.82016 c 0,3.90427 -0.33852,4.00958 -2.06874,4.26535 l -0.57923,0.0678 c -0.2633,0.2633 -0.22569,0.93282 0.0601,1.07575 1.47445,-0.0753 3.13695,-0.12037 4.75433,-0.12037 1.6249,0 3.27236,0.0451 5.44641,0.12037 0.26329,-0.14293 0.28586,-0.81245 0.0753,-1.07575 l -1.36913,-0.14292 c -1.72268,-0.18055 -2.04616,-0.28586 -2.04616,-4.19013 l 0,-16.08345 c 0,-1.42931 0.0301,-1.53462 1.86561,-1.53462 3.34759,0 5.25835,2.61036 5.25835,5.58934 0,3.01658 -1.21115,5.44641 -4.56626,6.1084 -0.18054,0.21816 -0.1354,0.69208 0.12038,0.92528 0.28586,0.0301 0.57925,0.0301 0.92528,0.0301 2.90375,0 8.2298,-1.54966 8.2298,-7.139 0,-2.43735 -1.21867,-4.37819 -3.12943,-5.51411 -1.65498,-0.9629 -4.19012,-1.47444 -7.68815,-1.47444 -3.34007,0 -5.55173,0.0376 -8.12449,0.33099 -0.29338,0.15046 -0.29338,0.76731 -0.0376,1.03061 l 1.2939,0.15045 c 1.53463,0.21064 1.57977,0.76731 1.57977,4.1149 l 0,13.46556 z m -44.89901,-9.74636 c 0,-2.91127 0,-6.11592 0.51906,-7.24432 0.2633,-0.58677 0.87263,-0.74474 1.57976,-0.85007 l 0.85007,-0.18053 c 0.28586,-0.27083 0.21815,-0.88768 -0.0828,-1.06823 -1.31648,0.0678 -2.27938,0.11288 -3.85913,0.11288 -1.42931,0 -2.79091,-0.0451 -4.22774,-0.11288 -0.36861,0.11288 -0.40622,0.7974 -0.0828,1.06823 l 0.85007,0.10525 c 0.92528,0.15045 1.51957,0.36861 1.84305,0.92528 0.66198,1.09832 0.6996,4.48352 0.6996,7.24433 l 0,7.1691 c 0,0.59429 0,0.76731 -0.12038,0.88767 -0.36109,-0.22568 -3.78389,-4.12242 -5.32604,-5.81502 l -3.67106,-3.97949 c -1.2939,-1.39169 -5.30347,-6.03317 -5.92786,-7.60541 -0.87263,0.0678 -1.75278,0.11287 -2.53514,0.11287 -0.92529,0 -2.94135,0.0226 -4.34809,-0.11287 -0.36108,0.11287 -0.39118,0.84254 -0.13541,1.06822 l 0.55668,0.10525 c 0.51153,0.11288 1.53462,0.3987 1.94085,0.73723 1.24876,1.06069 1.21115,1.65499 1.21115,4.52111 l 0,8.71878 c 0,2.91126 0,6.10087 -0.47393,7.25183 -0.2633,0.58678 -0.91777,0.73723 -1.6249,0.8275 l -0.81245,0.19559 c -0.28586,0.25578 -0.21815,0.88768 0.0828,1.07574 1.28638,-0.0752 2.27936,-0.12038 3.82904,-0.12038 1.39921,0 2.82852,0.0451 4.19012,0.12038 0.36109,-0.12038 0.40623,-0.81996 0.0752,-1.07574 l -0.81245,-0.11287 c -0.91776,-0.14294 -1.54215,-0.36862 -1.87313,-0.91025 -0.63192,-1.11335 -0.66953,-4.49855 -0.66953,-7.25184 l 0,-7.17663 c 0,-1.94085 0,-2.34707 0.10538,-2.34707 0.6319,0.55669 1.81296,1.94837 4.20516,4.63396 l 8.60592,9.81708 c 2.64798,3.01658 3.7162,4.27287 4.29544,5.04771 0.45136,0.0301 0.97043,-0.12038 1.24876,-0.52659 -0.10525,-0.84254 -0.10525,-5.36366 -0.10525,-6.46949 l 0,-8.78647 z m -55.0862,9.74636 c 0,3.90427 -0.331,4.00958 -2.06121,4.19013 l -1.36913,0.14292 c -0.25576,0.2633 -0.21815,0.93282 0.0828,1.07575 1.65499,-0.0752 3.89674,-0.12037 5.51411,-0.12037 l 4.19765,0 c 4.31049,0 7.47,0.0451 9.07985,0.12037 0.52659,-0.993 1.33152,-3.79142 1.54968,-5.3411 -0.21816,-0.36108 -0.85006,-0.46639 -1.18106,-0.21814 -1.28638,2.97897 -2.0913,4.05471 -6.76288,3.97196 -3.09181,0 -3.72371,-0.29339 -4.16004,-0.80493 -0.55667,-0.6319 -0.61685,-1.95588 -0.61685,-3.82903 l 0,-4.67158 c 0,-0.91776 0.0301,-0.98546 0.88015,-0.98546 l 1.7603,0 c 3.20467,0 3.82904,0.0678 4.09233,1.61737 l 0.24825,1.46692 c 0.30091,0.22568 0.98547,0.22568 1.17354,-0.0376 -0.0376,-1.18106 -0.10525,-2.46744 -0.10525,-3.86665 0,-1.3616 0.0677,-2.67806 0.10525,-3.67857 -0.18807,-0.29339 -0.87263,-0.29339 -1.17354,-0.0376 l -0.24825,1.25628 c -0.26329,1.57976 -0.88766,1.61737 -4.09233,1.61737 l -1.7603,0 c -0.85006,0 -0.88015,-0.0376 -0.88015,-0.99299 l 0,-6.22125 c 0,-2.09881 0,-2.16652 1.57977,-2.16652 l 2.4599,0 c 0.98547,0 2.09882,0.0678 2.94136,0.33852 1.17354,0.29339 1.73021,1.21115 2.30946,3.34759 0.3009,0.21063 1.04565,0.1354 1.18106,-0.15797 -0.21816,-1.57977 -0.43632,-4.48352 -0.58677,-5.10789 -0.47393,0.0752 -2.60284,0.11287 -4.95744,0.11287 l -7.03369,0 c -1.61737,0 -3.34758,-0.0376 -4.7468,-0.11287 -0.29338,0.14292 -0.331,0.80492 -0.0678,1.06821 l 0.58677,0.0752 c 1.73021,0.25578 2.06121,0.36861 2.06121,4.25783 l 0,13.69125 z"
       id="path150"
       style="fill:#001868;fill-opacity:1;fill-rule:nonzero;stroke:none" />
  </g>
</svg>
